Coordinates
version=1
nRows=12
nColumns=24
inDegrees=yes

Units are S.I. units (second, meters, Newtons, ...)
Angles are in degrees.

endheader
time	pelvis_tilt	pelvis_list	pelvis_rotation	pelvis_tx	pelvis_ty	pelvis_tz	hip_flexion_r	hip_adduction_r	hip_rotation_r	knee_angle_r	ankle_angle_r	subtalar_angle_r	mtp_angle_r	hip_flexion_l	hip_adduction_l	hip_rotation_l	knee_angle_l	ankle_angle_l	subtalar_angle_l	mtp_angle_l	lumbar_extension	lumbar_bending	lumbar_rotation
      0.57100000	      2.07205326	      3.44155763	      0.62743887	     -0.84782355	      0.99889425	      0.27372250	     19.84633911	     -2.33869465	     -2.32172495	      0.94751252	      3.95546454	    -11.76865099	      9.21216563	    -20.96772225	      4.61307946	      6.26313114	     -4.03034114	      9.90844470	    -11.02632523	      2.69514393	     -6.67157421	     -4.58345351	     -3.67308340
      0.57516667	      2.08128895	      3.34657954	      0.67760165	     -0.84166148	      0.99833684	      0.27423571	     19.87088215	     -2.22914929	     -2.23495632	      0.55334356	      3.98953445	    -11.90441345	      9.21344801	    -21.09041062	      4.46949959	      6.30888239	     -4.54424575	      9.91129450	    -11.03765619	      2.70317967	     -6.64990723	     -4.43961437	     -3.70109694
      0.57933333	      2.01708614	      3.26360194	      0.74162434	     -0.83547436	      0.99771169	      0.27478287	     19.95127092	     -2.12909121	     -2.01214354	      0.14632531	      3.89820011	    -12.28507938	      9.22853036	    -21.04504766	      4.32600145	      6.14525421	     -5.23652576	     10.07480170	    -10.61331623	      2.77720518	     -6.51638725	     -4.30469609	     -3.87069070
      0.58350000	      2.01330921	      3.15051174	      0.78923406	     -0.82922986	      0.99719945	      0.27533979	     19.96912658	     -1.99090925	     -1.85077501	     -0.31984547	      3.80159402	    -12.57582211	      9.25761733	    -21.07620507	      4.15916971	      6.02688264	     -5.91106999	     10.16667287	    -10.31696857	      2.88551962	     -6.45749558	     -4.13052742	     -3.93391462
      0.58766667	      2.00992885	      3.02850802	      0.83150375	     -0.82293154	      0.99671416	      0.27591452	     19.98465862	     -1.83782835	     -1.69986568	     -0.83034203	      3.64590706	    -12.87854713	      9.30192097	    -21.08810082	      3.98456908	      5.87848630	     -6.62479985	     10.22336107	    -10.02654091	      3.03208438	     -6.39046338	     -3.94817289	     -4.00534095
      0.59183333	      1.99061236	      2.89594399	      0.87828581	     -0.81659558	      0.99625287	      0.27649378	     20.01557789	     -1.67218123	     -1.55983395	     -1.38288908	      3.47495041	    -13.16543918	      9.34057452	    -21.06628516	      3.80183863	      5.78046066	     -7.37050837	     10.26178941	     -9.82839175	      3.15608802	     -6.30661243	     -3.74542395	     -4.06284898
      0.59600000	      1.98460983	      2.76517383	      0.91640551	     -0.81022771	      0.99583888	      0.27710171	     20.02190823	     -1.50091017	     -1.41394218	     -1.94372313	      3.19095756	    -13.50888540	      9.39697509	    -21.02067370	      3.61710212	      5.57250084	     -8.18671774	     10.26771762	     -9.46623462	      3.33746014	     -6.22468129	     -3.55257706	     -4.13914119
      0.60016667	      1.99108996	      2.62656518	      0.94363479	     -0.80382551	      0.99546887	      0.27774394	     20.01761477	     -1.31487924	     -1.28880010	     -2.53963172	      2.88673455	    -13.81477967	      9.46410949	    -20.96352406	      3.42732246	      5.35227748	     -9.05201839	     10.24161014	     -9.13312821	      3.55128771	     -6.16136411	     -3.35477908	     -4.18354042
      0.60433333	      2.01433575	      2.48161368	      0.96860606	     -0.79739822	      0.99515152	      0.27841033	     19.98675636	     -1.11803601	     -1.17087233	     -3.14242032	      2.54351707	    -14.13133818	      9.54958852	    -20.89505050	      3.22543320	      5.07803406	     -9.97419162	     10.17959560	     -8.73616425	      3.83161553	     -6.12041234	     -3.15566290	     -4.23148413
      0.60850000	      2.04184987	      2.34150778	      0.97841205	     -0.79094254	      0.99486448	      0.27908942	     19.97068951	     -0.92400496	     -1.11746227	     -3.80225090	      2.21908750	    -14.35797453	     11.22678391	    -20.80437289	      3.02810705	      4.73962520	    -10.93213163	     10.00966353	     -8.37171798	      9.41768830	     -6.06674394	     -2.94817546	     -4.19740910
      0.61266667	      2.05124696	      2.19734428	      1.00278139	     -0.78446129	      0.99461028	      0.27978804	     19.93827265	     -0.72303883	     -1.01065327	     -4.40870124	      1.77621188	    -14.70135169	     11.21893973	    -20.66542354	      2.82456374	      4.46306873	    -11.95020665	      9.85151126	     -8.04560074	      9.48077991	     -5.99834089	     -2.75122722	     -4.30042144
      0.61683333	      2.08459438	      2.04440934	      1.00351800	     -0.77796738	      0.99439759	      0.28052728	     19.89555855	     -0.50627587	     -0.93898575	     -5.05700499	      1.36724697	    -14.96112901	     11.22284086	    -20.51400897	      2.60830698	      4.07733805	    -13.04452043	      9.69436852	     -7.58106066	      9.60677131	     -5.94838639	     -2.53646616	     -4.30631202
